<svg width="120" height="21" viewBox="0 0 120 21" fill="none" xmlns="http://www.w3.org/2000/svg">
<mask id="mask0_12184_32845" style="mask-type:luminance" maskUnits="userSpaceOnUse" x="88" y="11" width="32" height="10">
<path d="M120 11.9919H88.9565V20.1841H120V11.9919Z" fill="white"/>
</mask>
<g mask="url(#mask0_12184_32845)">
</g>
<g clip-path="url(#clip0_12184_32845)">
<path d="M73.1151 3.17113L73.84 0.930664H53.4342L50.8643 9.6509L60.9464 9.62893C60.9464 9.62893 61.4076 9.6509 61.4296 9.6509C64.373 9.6509 64.7464 10.3099 63.6481 13.6925C62.6157 17.0093 61.781 17.9538 59.0134 17.9538C57.0365 17.9538 56.3336 17.2289 56.5313 15.3399H49.2828C48.6238 19.4255 50.7325 19.8648 58.3984 19.8648C67.3163 19.8648 69.3591 18.8544 71.0504 13.6705C72.6539 8.64049 71.4897 7.47633 63.8458 7.38847L58.618 7.3665L59.8261 3.17113C59.892 3.17113 72.5001 3.17113 73.1151 3.17113Z" fill="white"/>
<path d="M22.7268 0.886719L10.1407 15.933L7.46092 3.67631C7.08751 2.05088 5.65976 0.886719 3.96844 0.886719H0.102539L4.27595 19.8867H6.84589H11.0193L26.9002 0.886719H22.7268Z" fill="white"/>
<path d="M39.5301 3.03932H50.996L51.5891 0.886719H36.6746C30.5903 0.886719 25.2746 5.03816 23.803 10.9468L21.5845 19.8867H28.2619L30.5683 12.0671H43.3301L43.9232 9.91446H31.2053L31.4469 9.12371C32.4793 5.49944 35.7741 3.03932 39.5301 3.03932Z" fill="white"/>
</g>
<defs>
<clipPath id="clip0_12184_32845">
<rect width="73.7376" height="19" fill="white" transform="translate(0.102539 0.886719)"/>
</clipPath>
</defs>
</svg>
