<?xml version="1.0" standalone="no"?>
<!DOCTYPE svg PUBLIC "-//W3C//DTD SVG 20010904//EN"
 "http://www.w3.org/TR/2001/REC-SVG-20010904/DTD/svg10.dtd">
<svg version="1.0" xmlns="http://www.w3.org/2000/svg"
 width="292.000000pt" height="292.000000pt" viewBox="0 0 292.000000 292.000000"
 preserveAspectRatio="xMidYMid meet">

<g transform="translate(0.000000,292.000000) scale(0.100000,-0.100000)"
fill="#000000" stroke="none">
<path d="M1460 1460 c0 -133 1 -140 20 -140 18 0 20 7 20 70 0 64 2 71 26 87
44 28 58 9 62 -81 3 -68 5 -76 22 -76 18 0 20 7 20 80 0 67 -3 83 -20 100 -24
24 -57 26 -88 4 -22 -15 -22 -15 -22 40 0 49 -2 56 -20 56 -19 0 -20 -7 -20
-140z"/>
<path d="M484 1476 c20 -24 36 -50 36 -56 0 -7 -13 -29 -30 -50 -35 -44 -36
-50 -12 -50 11 0 30 16 44 36 l26 36 28 -36 c19 -23 37 -36 53 -36 23 0 22 1
-13 44 -20 24 -36 50 -36 56 0 6 11 26 24 43 37 51 39 57 17 57 -12 0 -30 -15
-45 -36 l-24 -35 -27 35 c-19 24 -35 36 -52 36 -25 0 -25 0 11 -44z"/>
<path d="M685 1497 c-20 -16 -28 -35 -32 -69 -5 -42 -3 -50 25 -78 33 -33 87
-40 129 -17 36 20 15 40 -25 25 -27 -11 -37 -10 -60 3 -15 8 -28 22 -30 32 -3
15 6 17 74 17 l77 0 -7 33 c-13 70 -97 101 -151 54z m93 -23 c35 -24 26 -34
-33 -34 -30 0 -55 4 -55 9 0 12 40 41 55 41 6 0 21 -7 33 -16z"/>
<path d="M874 1488 c52 -64 53 -72 11 -122 -37 -45 -37 -46 -13 -46 17 0 33
11 50 36 l26 36 27 -36 c15 -20 36 -36 46 -36 25 0 24 6 -11 50 -36 46 -37 54
-7 94 39 51 40 56 18 56 -13 0 -30 -14 -43 -35 -13 -19 -25 -35 -28 -35 -3 0
-16 16 -29 35 -16 24 -31 35 -49 35 l-25 0 27 -32z"/>
<path d="M1080 1502 c-33 -27 -18 -44 22 -25 33 17 60 9 66 -19 2 -11 -9 -17
-44 -21 -51 -5 -74 -25 -74 -62 0 -45 76 -75 108 -43 9 9 12 9 12 0 0 -7 9
-12 20 -12 18 0 20 7 20 80 0 67 -3 83 -20 100 -25 25 -80 26 -110 2z m90
-110 c0 -39 -55 -57 -80 -27 -19 22 5 45 46 45 26 0 34 -4 34 -18z"/>
<path d="M1250 1420 c0 -82 3 -100 15 -100 11 0 15 13 15 54 0 93 30 133 80
106 17 -9 20 -20 20 -85 0 -70 2 -75 21 -75 20 0 21 4 18 86 -3 71 -7 88 -23
100 -26 19 -61 18 -91 -2 -23 -15 -25 -15 -25 0 0 9 -7 16 -15 16 -12 0 -15
-18 -15 -100z"/>
<path d="M1769 1491 c-62 -63 -24 -171 60 -171 42 0 88 27 73 42 -6 6 -17 6
-30 -1 -32 -17 -56 -13 -80 12 -29 30 -28 62 3 92 28 29 42 31 74 9 17 -13 25
-14 34 -4 18 17 -27 50 -70 50 -25 0 -43 -8 -64 -29z"/>
<path d="M1959 1491 c-23 -24 -29 -38 -29 -74 0 -38 5 -49 31 -71 21 -18 42
-26 68 -26 89 0 127 111 61 173 -42 38 -91 37 -131 -2z m106 -26 c28 -27 31
-45 14 -78 -24 -46 -67 -50 -99 -10 -25 32 -20 69 12 96 27 23 44 22 73 -8z"/>
<path d="M2160 1420 c0 -82 3 -100 15 -100 11 0 15 13 15 54 0 67 12 102 38
108 41 11 52 -8 52 -87 0 -68 2 -75 20 -75 18 0 20 7 20 61 0 87 26 123 71 99
16 -9 19 -22 19 -85 0 -68 2 -75 20 -75 18 0 20 7 20 80 0 67 -3 83 -20 100
-24 24 -57 26 -88 4 -21 -15 -25 -15 -41 0 -22 20 -60 20 -89 0 -20 -14 -22
-14 -22 0 0 9 -7 16 -15 16 -12 0 -15 -18 -15 -100z"/>
</g>
</svg>
